<?xml version="1.0" encoding="UTF-8" standalone="no"?>
<svg width="1719px" height="325px" viewBox="0 0 1719 325" version="1.1" xmlns="http://www.w3.org/2000/svg" xmlns:xlink="http://www.w3.org/1999/xlink">
    <!-- Generator: Sketch 40.2 (33826) - http://www.bohemiancoding.com/sketch -->
    <title>function-flatmap</title>
    <desc>Created with Sketch.</desc>
    <defs>
        <ellipse id="path-1" cx="248.403653" cy="56.5337423" rx="51.403653" ry="51.5337423"></ellipse>
        <mask id="mask-2" maskContentUnits="userSpaceOnUse" maskUnits="objectBoundingBox" x="0" y="0" width="102.807306" height="103.067485" fill="white">
            <use xlink:href="#path-1"></use>
        </mask>
        <polygon id="path-3" points="124.372306 41.2944785 150.074132 41.2944785 150.074132 28.4110429 175.775959 53.8543899 150.074132 79.9447853 150.074132 67.0613497 124.372306 67.0613497"></polygon>
        <mask id="mask-4" maskContentUnits="userSpaceOnUse" maskUnits="objectBoundingBox" x="0" y="0" width="51.403653" height="51.5337423" fill="white">
            <use xlink:href="#path-3"></use>
        </mask>
        <ellipse id="path-5" cx="248.403653" cy="56.5337423" rx="51.403653" ry="51.5337423"></ellipse>
        <mask id="mask-6" maskContentUnits="userSpaceOnUse" maskUnits="objectBoundingBox" x="0" y="0" width="102.807306" height="103.067485" fill="white">
            <use xlink:href="#path-5"></use>
        </mask>
        <polygon id="path-7" points="124.372306 41.2944785 150.074132 41.2944785 150.074132 28.4110429 175.775959 53.8543899 150.074132 79.9447853 150.074132 67.0613497 124.372306 67.0613497"></polygon>
        <mask id="mask-8" maskContentUnits="userSpaceOnUse" maskUnits="objectBoundingBox" x="0" y="0" width="51.403653" height="51.5337423" fill="white">
            <use xlink:href="#path-7"></use>
        </mask>
        <polygon id="path-9" points="123.480898 86.9631902 89.4897999 104.878593 95.9815219 66.9331613 68.4821461 40.0600577 106.485349 34.5238939 123.480898 0 140.476447 34.5238939 178.479649 40.0600577 150.980273 66.9331613 157.471995 104.878593"></polygon>
        <mask id="mask-10" maskContentUnits="userSpaceOnUse" maskUnits="objectBoundingBox" x="0" y="0" width="109.997503" height="104.878593" fill="white">
            <use xlink:href="#path-9"></use>
        </mask>
        <polygon id="path-11" points="0.372305936 39.2944785 26.0741324 39.2944785 26.0741324 26.4110429 51.7759589 51.8543899 26.0741324 77.9447853 26.0741324 65.0613497 0.372305936 65.0613497"></polygon>
        <mask id="mask-12" maskContentUnits="userSpaceOnUse" maskUnits="objectBoundingBox" x="0" y="0" width="51.403653" height="51.5337423" fill="white">
            <use xlink:href="#path-11"></use>
        </mask>
        <polygon id="path-13" points="254.480898 87.9631902 220.4898 105.878593 226.981522 67.9331613 199.482146 41.0600577 237.485349 35.5238939 254.480898 1 271.476447 35.5238939 309.479649 41.0600577 281.980273 67.9331613 288.471995 105.878593"></polygon>
        <mask id="mask-14" maskContentUnits="userSpaceOnUse" maskUnits="objectBoundingBox" x="0" y="0" width="109.997503" height="104.878593" fill="white">
            <use xlink:href="#path-13"></use>
        </mask>
        <polygon id="path-15" points="131.372306 40.2944785 157.074132 40.2944785 157.074132 27.4110429 182.775959 52.8543899 157.074132 78.9447853 157.074132 66.0613497 131.372306 66.0613497"></polygon>
        <mask id="mask-16" maskContentUnits="userSpaceOnUse" maskUnits="objectBoundingBox" x="0" y="0" width="51.403653" height="51.5337423" fill="white">
            <use xlink:href="#path-15"></use>
        </mask>
    </defs>
    <g id="Page-1" stroke="none" stroke-width="1" fill="none" fill-rule="evenodd">
        <g id="function-flatmap">
            <rect id="Background" fill="#FFFFFF" x="0" y="0" width="1719" height="325"></rect>
            <g id="Group-5" transform="translate(65.000000, 51.000000)" stroke="#000000">
                <use id="Oval-1" mask="url(#mask-2)" stroke-width="8" fill="#FFFFFF" xlink:href="#path-1"></use>
                <use id="Path-1" mask="url(#mask-4)" stroke-width="8" fill="#000000" xlink:href="#path-3"></use>
                <polygon id="Polygon" stroke-width="4" points="53 0.0658617424 105.339263 38.0925622 85.3474435 99.621056 20.6525565 99.621056 0.66073703 38.0925622"></polygon>
            </g>
            <g id="Group-5" transform="translate(705.000000, 49.000000)" stroke="#000000">
                <use id="Oval-1" mask="url(#mask-6)" stroke-width="8" fill="#FFFFFF" xlink:href="#path-5"></use>
                <use id="Path-1" mask="url(#mask-8)" stroke-width="8" fill="#000000" xlink:href="#path-7"></use>
                <polygon id="Polygon" stroke-width="4" points="53 0.0658617424 105.339263 38.0925622 85.3474435 99.621056 20.6525565 99.621056 0.66073703 38.0925622"></polygon>
            </g>
            <g id="Group-5" transform="translate(1024.000000, 53.000000)" stroke="#000000" stroke-width="8">
                <use id="Star-1" mask="url(#mask-10)" fill="#FFFFFF" xlink:href="#path-9"></use>
                <use id="Path-1" mask="url(#mask-12)" fill="#000000" xlink:href="#path-11"></use>
            </g>
            <g id="Group-6" transform="translate(1343.000000, 52.000000)" stroke="#000000">
                <use id="Star-1" mask="url(#mask-14)" stroke-width="8" fill="#FFFFFF" xlink:href="#path-13"></use>
                <use id="Path-1" mask="url(#mask-16)" stroke-width="8" fill="#000000" xlink:href="#path-15"></use>
                <polygon id="Polygon" stroke-width="4" points="52.6785259 0.853169549 105.357052 39.126359 85.2356454 101.05368 20.1214064 101.05368 -6.39488462e-14 39.126359"></polygon>
            </g>
            <polygon id="Path-1" fill="#F6A623" points="1232 85 1272 85 1272 65 1312 104.497767 1272 145 1272 125 1232 125"></polygon>
            <text id="X-=&gt;-A" font-family="FiraMono-Regular, Fira Mono" font-size="42" font-weight="normal" fill="#000000">
                <tspan x="145.4" y="282">X =&gt; A</tspan>
            </text>
            <text id="X-=&gt;-B" font-family="FiraMono-Regular, Fira Mono" font-size="42" font-weight="normal" fill="#000000">
                <tspan x="1428.4" y="282">X =&gt; B</tspan>
            </text>
            <text id="A-=&gt;-(X-=&gt;-B)" font-family="FiraMono-Regular, Fira Mono" font-size="42" font-weight="normal" fill="#000000">
                <tspan x="785.2" y="282">A =&gt; (X =&gt; B)</tspan>
            </text>
            <text id="flatMap" font-family="FiraMono-Bold, Fira Mono" font-size="64" font-weight="bold" fill="#F6A623">
                <tspan x="397.2" y="123">flatMap</tspan>
            </text>
        </g>
    </g>
</svg>