<?xml version="1.0" encoding="UTF-8" standalone="no"?>
<svg width="1718px" height="360px" viewBox="0 0 1718 360" version="1.1" xmlns="http://www.w3.org/2000/svg" xmlns:xlink="http://www.w3.org/1999/xlink">
    <!-- Generator: Sketch 40.2 (33826) - http://www.bohemiancoding.com/sketch -->
    <title>list-flatmap</title>
    <desc>Created with Sketch.</desc>
    <defs>
        <ellipse id="path-1" cx="80" cy="80" rx="80" ry="80"></ellipse>
        <mask id="mask-2" maskContentUnits="userSpaceOnUse" maskUnits="objectBoundingBox" x="0" y="0" width="160" height="160" fill="white">
            <use xlink:href="#path-1"></use>
        </mask>
        <ellipse id="path-3" cx="100" cy="100" rx="80" ry="80"></ellipse>
        <mask id="mask-4" maskContentUnits="userSpaceOnUse" maskUnits="objectBoundingBox" x="0" y="0" width="160" height="160" fill="white">
            <use xlink:href="#path-3"></use>
        </mask>
        <ellipse id="path-5" cx="120" cy="120" rx="80" ry="80"></ellipse>
        <mask id="mask-6" maskContentUnits="userSpaceOnUse" maskUnits="objectBoundingBox" x="0" y="0" width="160" height="160" fill="white">
            <use xlink:href="#path-5"></use>
        </mask>
        <ellipse id="path-7" cx="787" cy="143" rx="80" ry="80"></ellipse>
        <mask id="mask-8" maskContentUnits="userSpaceOnUse" maskUnits="objectBoundingBox" x="0" y="0" width="160" height="160" fill="white">
            <use xlink:href="#path-7"></use>
        </mask>
        <polygon id="path-9" points="85.5950865 135 32.6944138 162.811529 42.7975432 103.905765 5.32907052e-14 62.1884705 59.1447501 53.5942353 85.5950865 4.26325641e-14 112.045423 53.5942353 171.190173 62.1884705 128.39263 103.905765 138.495759 162.811529"></polygon>
        <mask id="mask-10" maskContentUnits="userSpaceOnUse" maskUnits="objectBoundingBox" x="0" y="0" width="171.190173" height="162.811529" fill="white">
            <use xlink:href="#path-9"></use>
        </mask>
        <polygon id="path-11" points="103.595086 157 50.6944138 184.811529 60.7975432 125.905765 18 84.1884705 77.1447501 75.5942353 103.595086 22 130.045423 75.5942353 189.190173 84.1884705 146.39263 125.905765 156.495759 184.811529"></polygon>
        <mask id="mask-12" maskContentUnits="userSpaceOnUse" maskUnits="objectBoundingBox" x="0" y="0" width="171.190173" height="162.811529" fill="white">
            <use xlink:href="#path-11"></use>
        </mask>
        <polygon id="path-13" points="85.5950865 135 32.6944138 162.811529 42.7975432 103.905765 -1.17239551e-13 62.1884705 59.1447501 53.5942353 85.5950865 0 112.045423 53.5942353 171.190173 62.1884705 128.39263 103.905765 138.495759 162.811529"></polygon>
        <mask id="mask-14" maskContentUnits="userSpaceOnUse" maskUnits="objectBoundingBox" x="0" y="0" width="171.190173" height="162.811529" fill="white">
            <use xlink:href="#path-13"></use>
        </mask>
        <polygon id="path-15" points="101.595086 155 48.6944138 182.811529 58.7975432 123.905765 16 82.1884705 75.1447501 73.5942353 101.595086 20 128.045423 73.5942353 187.190173 82.1884705 144.39263 123.905765 154.495759 182.811529"></polygon>
        <mask id="mask-16" maskContentUnits="userSpaceOnUse" maskUnits="objectBoundingBox" x="0" y="0" width="171.190173" height="162.811529" fill="white">
            <use xlink:href="#path-15"></use>
        </mask>
        <polygon id="path-17" points="119.595086 178 66.6944138 205.811529 76.7975432 146.905765 34 105.188471 93.1447501 96.5942353 119.595086 43 146.045423 96.5942353 205.190173 105.188471 162.39263 146.905765 172.495759 205.811529"></polygon>
        <mask id="mask-18" maskContentUnits="userSpaceOnUse" maskUnits="objectBoundingBox" x="0" y="0" width="171.190173" height="162.811529" fill="white">
            <use xlink:href="#path-17"></use>
        </mask>
        <polygon id="path-19" points="898 123 938 123 938 103 978 142.497767 938 183 938 163 898 163"></polygon>
        <mask id="mask-20" maskContentUnits="userSpaceOnUse" maskUnits="objectBoundingBox" x="0" y="0" width="80" height="80" fill="white">
            <use xlink:href="#path-19"></use>
        </mask>
    </defs>
    <g id="Page-1" stroke="none" stroke-width="1" fill="none" fill-rule="evenodd">
        <g id="list-flatmap">
            <rect id="Background" fill="#FFFFFF" x="0" y="0" width="1718" height="360"></rect>
            <g id="Group-2-Copy" transform="translate(159.000000, 40.000000)" stroke="#000000" stroke-width="8" fill="#FFFFFF">
                <use id="Oval-1" mask="url(#mask-2)" xlink:href="#path-1"></use>
                <use id="Oval-1" mask="url(#mask-4)" xlink:href="#path-3"></use>
                <use id="Oval-1" mask="url(#mask-6)" xlink:href="#path-5"></use>
            </g>
            <use id="Oval-1-Copy" stroke="#000000" mask="url(#mask-8)" stroke-width="8" fill="#FFFFFF" xlink:href="#path-7"></use>
            <g id="Group-10" transform="translate(1002.000000, 47.000000)" stroke="#000000" stroke-width="8" fill="#FFFFFF">
                <use id="Star-1-Copy" mask="url(#mask-10)" xlink:href="#path-9"></use>
                <use id="Star-1" mask="url(#mask-12)" xlink:href="#path-11"></use>
            </g>
            <g id="Group-Copy" transform="translate(1357.000000, 40.000000)" stroke="#000000" stroke-width="8" fill="#FFFFFF">
                <use id="Star-1" mask="url(#mask-14)" xlink:href="#path-13"></use>
                <use id="Star-1" mask="url(#mask-16)" xlink:href="#path-15"></use>
                <use id="Star-1" mask="url(#mask-18)" xlink:href="#path-17"></use>
            </g>
            <use id="Path-1-Copy" stroke="#000000" mask="url(#mask-20)" stroke-width="8" fill="#000000" xlink:href="#path-19"></use>
            <polygon id="Path-1-Copy-2" fill="#F6A623" points="1239 123 1279 123 1279 103 1319 142.497767 1279 183 1279 163 1239 163"></polygon>
            <text id="List[A]-Copy" font-family="FiraMono-Regular, Fira Mono" font-size="42" font-weight="normal" fill="#000000">
                <tspan x="171.3" y="317">List[A]</tspan>
            </text>
            <text id="flatMap" font-family="FiraMono-Bold, Fira Mono" font-size="64" font-weight="bold" fill="#F6A623">
                <tspan x="395.6" y="159">flatMap</tspan>
            </text>
            <text id="List[B]-Copy" font-family="FiraMono-Regular, Fira Mono" font-size="42" font-weight="normal" fill="#000000">
                <tspan x="1374.8" y="317">List[B]</tspan>
            </text>
            <text id="A-=&gt;-List[B]" font-family="FiraMono-Regular, Fira Mono" font-size="42" font-weight="normal" fill="#000000">
                <tspan x="807.8" y="317">A =&gt; List[B]</tspan>
            </text>
        </g>
    </g>
</svg>