<?xml version="1.0" encoding="utf-8"?>
<!-- Generator: Adobe Illustrator 15.1.0, SVG Export Plug-In . SVG Version: 6.00 Build 0)  -->
<!DOCTYPE svg PUBLIC "-//W3C//DTD SVG 1.1//EN" "http://www.w3.org/Graphics/SVG/1.1/DTD/svg11.dtd">
<svg version="1.1" id="Layer_1" xmlns="http://www.w3.org/2000/svg" xmlns:xlink="http://www.w3.org/1999/xlink" x="0px" y="0px"
	 width="272px" height="120px" viewBox="0 0 272 120" enable-background="new 0 0 272 120" xml:space="preserve">
<g id="BG">
</g>
<g id="Logo_1_">
	<g enable-background="new    ">
		<path fill="#FFFFFF" d="M18.309,89.144v16.164c0,1.554,0.359,2.756,1.079,3.606c0.719,0.852,1.797,1.277,3.235,1.277
			c1.058,0,2.049-0.235,2.975-0.707c0.925-0.471,1.801-1.119,2.627-1.945V89.144h6.124v25.436h-3.744
			c-0.793,0-1.313-0.372-1.562-1.115l-0.421-2.033c-0.529,0.529-1.075,1.013-1.636,1.45c-0.562,0.438-1.161,0.81-1.797,1.115
			c-0.636,0.307-1.322,0.546-2.058,0.72c-0.735,0.173-1.524,0.26-2.368,0.26c-1.388,0-2.615-0.235-3.681-0.706
			c-1.066-0.472-1.963-1.137-2.69-1.996c-0.728-0.859-1.276-1.88-1.648-3.062s-0.558-2.482-0.558-3.904V89.144H18.309z"/>
		<path fill="#FFFFFF" d="M40.893,114.579V89.144h3.743c0.793,0,1.314,0.372,1.562,1.116l0.421,2.008
			c0.512-0.528,1.054-1.008,1.624-1.438c0.57-0.43,1.173-0.802,1.81-1.116c0.636-0.313,1.317-0.553,2.045-0.719
			c0.727-0.165,1.521-0.248,2.38-0.248c1.388,0,2.62,0.235,3.694,0.707c1.074,0.471,1.971,1.132,2.69,1.983
			c0.719,0.851,1.264,1.867,1.636,3.049c0.372,1.182,0.558,2.483,0.558,3.904v16.188h-6.123V98.391c0-1.553-0.36-2.756-1.079-3.606
			c-0.719-0.852-1.797-1.277-3.235-1.277c-1.058,0-2.049,0.24-2.975,0.719c-0.926,0.48-1.802,1.133-2.628,1.959v18.395H40.893z"/>
		<path fill="#FFFFFF" d="M86.978,114.579c-0.793,0-1.313-0.372-1.562-1.115l-0.496-2.455c-0.529,0.596-1.083,1.133-1.661,1.612
			c-0.579,0.479-1.203,0.892-1.872,1.239c-0.669,0.347-1.389,0.615-2.157,0.806c-0.769,0.189-1.599,0.285-2.492,0.285
			c-1.388,0-2.661-0.29-3.818-0.868s-2.153-1.417-2.987-2.516c-0.834-1.1-1.479-2.458-1.934-4.078s-0.682-3.471-0.682-5.554
			c0-1.884,0.256-3.636,0.769-5.255c0.512-1.62,1.248-3.024,2.207-4.215c0.958-1.189,2.107-2.119,3.446-2.789
			c1.338-0.669,2.842-1.004,4.512-1.004c1.421,0,2.636,0.228,3.644,0.682c1.008,0.455,1.909,1.062,2.702,1.822V77.74h6.124v36.839
			H86.978z M78.822,110.092c1.272,0,2.355-0.264,3.248-0.793s1.735-1.28,2.528-2.256V95.639c-0.694-0.843-1.45-1.438-2.268-1.784
			c-0.818-0.348-1.698-0.521-2.64-0.521c-0.926,0-1.765,0.173-2.516,0.521c-0.752,0.347-1.389,0.872-1.909,1.574
			s-0.921,1.595-1.202,2.677c-0.281,1.083-0.421,2.359-0.421,3.83c0,1.488,0.12,2.748,0.359,3.781
			c0.239,1.033,0.583,1.876,1.029,2.528c0.446,0.653,0.992,1.124,1.636,1.413S78.029,110.092,78.822,110.092z"/>
		<path fill="#FFFFFF" d="M107.852,88.747c1.603,0,3.078,0.257,4.425,0.769c1.347,0.513,2.508,1.261,3.483,2.244
			c0.975,0.983,1.735,2.189,2.281,3.619s0.818,3.062,0.818,4.896c0,0.463-0.021,0.847-0.062,1.152
			c-0.042,0.306-0.116,0.545-0.223,0.719s-0.252,0.298-0.434,0.372c-0.182,0.074-0.414,0.111-0.694,0.111h-15.717
			c0.182,2.611,0.884,4.528,2.107,5.752c1.223,1.223,2.842,1.834,4.859,1.834c0.992,0,1.847-0.115,2.566-0.347
			c0.719-0.231,1.347-0.487,1.884-0.769s1.008-0.537,1.413-0.769c0.405-0.231,0.797-0.348,1.178-0.348
			c0.248,0,0.462,0.05,0.645,0.149c0.182,0.099,0.338,0.239,0.471,0.421l1.785,2.231c-0.678,0.793-1.438,1.459-2.281,1.996
			s-1.723,0.967-2.64,1.289c-0.917,0.322-1.851,0.549-2.801,0.682c-0.951,0.132-1.872,0.198-2.764,0.198
			c-1.769,0-3.413-0.294-4.933-0.88c-1.521-0.587-2.843-1.454-3.967-2.604c-1.124-1.148-2.008-2.569-2.652-4.264
			s-0.967-3.657-0.967-5.888c0-1.735,0.281-3.367,0.843-4.896c0.562-1.528,1.367-2.859,2.417-3.991
			c1.049-1.132,2.33-2.028,3.842-2.689C104.245,89.078,105.951,88.747,107.852,88.747z M107.976,93.136
			c-1.785,0-3.182,0.504-4.19,1.512c-1.008,1.009-1.653,2.438-1.934,4.289h11.503c0-0.794-0.108-1.541-0.322-2.244
			c-0.215-0.702-0.545-1.317-0.992-1.847c-0.446-0.528-1.008-0.945-1.686-1.252C109.677,93.288,108.884,93.136,107.976,93.136z"/>
		<path fill="#FFFFFF" d="M123.841,114.579V89.144h3.595c0.628,0,1.066,0.116,1.313,0.348c0.248,0.231,0.413,0.628,0.496,1.189
			l0.372,3.074c0.909-1.569,1.975-2.81,3.198-3.719c1.223-0.908,2.594-1.363,4.115-1.363c1.256,0,2.297,0.289,3.124,0.868
			l-0.794,4.586c-0.049,0.298-0.156,0.508-0.322,0.632c-0.164,0.124-0.388,0.187-0.668,0.187c-0.248,0-0.588-0.058-1.018-0.174
			c-0.43-0.115-1-0.174-1.71-0.174c-1.273,0-2.364,0.352-3.272,1.054c-0.909,0.703-1.678,1.731-2.306,3.087v15.841H123.841z"/>
		<path fill="#FFFFFF" d="M159.191,94.103c-0.165,0.264-0.339,0.45-0.521,0.558c-0.183,0.107-0.413,0.161-0.694,0.161
			c-0.297,0-0.615-0.083-0.954-0.248s-0.731-0.351-1.178-0.558s-0.954-0.393-1.524-0.558s-1.244-0.248-2.021-0.248
			c-1.206,0-2.157,0.256-2.851,0.769c-0.694,0.512-1.041,1.182-1.041,2.008c0,0.545,0.177,1.004,0.533,1.376
			c0.354,0.372,0.826,0.698,1.412,0.979c0.587,0.281,1.252,0.533,1.996,0.757c0.744,0.223,1.504,0.467,2.28,0.731
			s1.537,0.566,2.28,0.904c0.744,0.339,1.41,0.769,1.996,1.289c0.587,0.521,1.058,1.145,1.413,1.872s0.533,1.604,0.533,2.628
			c0,1.223-0.224,2.351-0.669,3.384c-0.447,1.033-1.1,1.926-1.959,2.677c-0.859,0.753-1.921,1.339-3.186,1.761
			c-1.264,0.421-2.715,0.632-4.351,0.632c-0.876,0-1.731-0.078-2.565-0.235c-0.835-0.157-1.637-0.376-2.405-0.657
			c-0.769-0.28-1.479-0.611-2.132-0.991c-0.653-0.38-1.227-0.793-1.723-1.239l1.412-2.331c0.182-0.28,0.397-0.495,0.645-0.645
			c0.248-0.148,0.562-0.223,0.943-0.223c0.379,0,0.738,0.107,1.078,0.322c0.338,0.215,0.73,0.446,1.178,0.694
			c0.445,0.248,0.971,0.479,1.574,0.693c0.603,0.216,1.367,0.322,2.293,0.322c0.727,0,1.351-0.086,1.871-0.26
			c0.521-0.174,0.95-0.4,1.289-0.682s0.586-0.607,0.744-0.979c0.156-0.372,0.235-0.756,0.235-1.152c0-0.596-0.178-1.083-0.533-1.463
			s-0.827-0.711-1.413-0.991c-0.586-0.281-1.256-0.533-2.008-0.757c-0.752-0.223-1.521-0.467-2.306-0.731
			c-0.785-0.264-1.554-0.573-2.306-0.93c-0.752-0.354-1.422-0.806-2.008-1.351c-0.587-0.546-1.058-1.215-1.413-2.008
			c-0.355-0.794-0.532-1.752-0.532-2.876c0-1.041,0.205-2.033,0.619-2.975c0.412-0.942,1.02-1.765,1.822-2.467
			c0.801-0.702,1.801-1.265,3-1.686c1.197-0.422,2.582-0.633,4.152-0.633c1.751,0,3.346,0.29,4.784,0.868
			c1.438,0.578,2.636,1.339,3.595,2.28L159.191,94.103z"/>
		<path fill="#FFFFFF" d="M183.635,94.523c-0.182,0.231-0.359,0.413-0.533,0.546c-0.174,0.132-0.426,0.198-0.756,0.198
			c-0.314,0-0.62-0.096-0.918-0.285c-0.297-0.19-0.652-0.405-1.065-0.645s-0.905-0.455-1.476-0.645
			c-0.57-0.19-1.276-0.285-2.119-0.285c-1.074,0-2.017,0.194-2.826,0.582c-0.811,0.389-1.483,0.946-2.021,1.674
			s-0.938,1.607-1.202,2.64c-0.265,1.033-0.396,2.203-0.396,3.508c0,1.355,0.145,2.562,0.434,3.62s0.707,1.946,1.252,2.665
			s1.206,1.264,1.983,1.636c0.776,0.372,1.652,0.558,2.628,0.558c0.975,0,1.764-0.119,2.367-0.359
			c0.604-0.239,1.111-0.504,1.525-0.793c0.412-0.289,0.771-0.554,1.078-0.793c0.305-0.24,0.648-0.36,1.028-0.36
			c0.496,0,0.868,0.19,1.116,0.57l1.76,2.231c-0.678,0.793-1.413,1.459-2.207,1.996c-0.793,0.537-1.615,0.967-2.467,1.289
			c-0.851,0.322-1.73,0.549-2.64,0.682c-0.909,0.132-1.81,0.198-2.702,0.198c-1.57,0-3.049-0.294-4.438-0.88
			c-1.389-0.587-2.6-1.442-3.632-2.566c-1.033-1.123-1.851-2.499-2.454-4.127s-0.904-3.483-0.904-5.566
			c0-1.867,0.268-3.598,0.805-5.193c0.537-1.595,1.326-2.975,2.367-4.14c1.042-1.165,2.331-2.078,3.868-2.739
			c1.536-0.661,3.306-0.992,5.306-0.992c1.899,0,3.564,0.307,4.994,0.918s2.715,1.487,3.855,2.627L183.635,94.523z"/>
		<path fill="#FFFFFF" d="M200.269,88.747c1.9,0,3.624,0.307,5.169,0.918s2.863,1.479,3.954,2.603s1.934,2.496,2.528,4.115
			c0.596,1.62,0.893,3.43,0.893,5.429c0,2.017-0.297,3.835-0.893,5.454c-0.595,1.62-1.438,3-2.528,4.141
			c-1.091,1.14-2.409,2.017-3.954,2.628c-1.545,0.61-3.269,0.917-5.169,0.917s-3.628-0.307-5.181-0.917
			c-1.555-0.611-2.881-1.488-3.979-2.628c-1.1-1.141-1.951-2.521-2.555-4.141c-0.604-1.619-0.904-3.438-0.904-5.454
			c0-1.999,0.301-3.809,0.904-5.429c0.604-1.619,1.455-2.991,2.555-4.115c1.098-1.124,2.424-1.991,3.979-2.603
			C196.641,89.054,198.368,88.747,200.269,88.747z M200.269,110.241c2.116,0,3.682-0.711,4.698-2.133
			c1.016-1.421,1.524-3.503,1.524-6.247c0-2.743-0.509-4.834-1.524-6.271c-1.017-1.438-2.582-2.157-4.698-2.157
			c-2.148,0-3.735,0.724-4.76,2.169c-1.024,1.446-1.536,3.533-1.536,6.26c0,2.728,0.512,4.806,1.536,6.235
			S198.12,110.241,200.269,110.241z"/>
		<path fill="#FFFFFF" d="M217.598,114.579V89.144h3.594c0.629,0,1.066,0.116,1.314,0.348s0.412,0.628,0.496,1.189l0.371,3.074
			c0.909-1.569,1.975-2.81,3.198-3.719c1.223-0.908,2.595-1.363,4.114-1.363c1.256,0,2.299,0.289,3.125,0.868l-0.793,4.586
			c-0.051,0.298-0.158,0.508-0.322,0.632c-0.166,0.124-0.389,0.187-0.67,0.187c-0.248,0-0.588-0.058-1.018-0.174
			c-0.43-0.115-0.999-0.174-1.709-0.174c-1.273,0-2.364,0.352-3.273,1.054c-0.908,0.703-1.678,1.731-2.305,3.087v15.841H217.598z"/>
		<path fill="#FFFFFF" d="M248.361,88.747c1.604,0,3.078,0.257,4.426,0.769c1.347,0.513,2.508,1.261,3.482,2.244
			c0.976,0.983,1.735,2.189,2.281,3.619c0.545,1.43,0.818,3.062,0.818,4.896c0,0.463-0.021,0.847-0.062,1.152
			s-0.116,0.545-0.223,0.719c-0.108,0.174-0.253,0.298-0.435,0.372s-0.413,0.111-0.693,0.111h-15.718
			c0.182,2.611,0.884,4.528,2.107,5.752c1.223,1.223,2.843,1.834,4.858,1.834c0.992,0,1.848-0.115,2.566-0.347
			s1.347-0.487,1.884-0.769s1.008-0.537,1.413-0.769s0.797-0.348,1.178-0.348c0.248,0,0.463,0.05,0.645,0.149
			c0.182,0.099,0.339,0.239,0.471,0.421l1.785,2.231c-0.678,0.793-1.438,1.459-2.28,1.996c-0.844,0.537-1.724,0.967-2.641,1.289
			s-1.852,0.549-2.802,0.682c-0.95,0.132-1.871,0.198-2.764,0.198c-1.769,0-3.413-0.294-4.934-0.88
			c-1.521-0.587-2.843-1.454-3.966-2.604c-1.125-1.148-2.009-2.569-2.653-4.264s-0.967-3.657-0.967-5.888
			c0-1.735,0.281-3.367,0.843-4.896c0.562-1.528,1.368-2.859,2.417-3.991c1.05-1.132,2.331-2.028,3.843-2.689
			C244.755,89.078,246.461,88.747,248.361,88.747z M248.485,93.136c-1.784,0-3.182,0.504-4.189,1.512
			c-1.008,1.009-1.652,2.438-1.934,4.289h11.503c0-0.794-0.107-1.541-0.322-2.244c-0.215-0.702-0.546-1.317-0.991-1.847
			c-0.446-0.528-1.009-0.945-1.687-1.252C250.188,93.288,249.395,93.136,248.485,93.136z"/>
	</g>
	<path id="Icon" fill="#FFFFFF" d="M171.926,19.707c-0.502-6.639-6.943-12.618-14.029-13.06c-15.092-0.859-30.184-0.859-45.274,0
		c-7.087,0.442-13.529,6.421-14.032,13.061c-0.909,13.124-0.909,26.248,0,39.372c0.503,6.641,6.945,12.618,14.032,13.061
		c15.092,0.858,30.183,0.858,45.274,0c7.086-0.441,13.527-6.42,14.029-13.061C172.835,45.954,172.835,32.83,171.926,19.707z
		 M138.848,56.703h-24.771v-4.699h24.771V56.703z M155.635,56.186c-0.367,0.367-0.794,0.654-1.279,0.859
		c-0.488,0.204-1.002,0.308-1.541,0.308c-0.541,0-1.049-0.104-1.523-0.308c-0.477-0.205-0.896-0.492-1.264-0.859
		c-0.369-0.367-0.653-0.789-0.858-1.262c-0.206-0.478-0.31-0.986-0.31-1.527c0-0.539,0.104-1.053,0.31-1.539
		c0.205-0.486,0.489-0.913,0.858-1.28c0.756-0.758,1.687-1.135,2.787-1.135c0.539,0,1.053,0.098,1.541,0.293
		c0.485,0.194,0.912,0.475,1.279,0.842c0.756,0.757,1.135,1.696,1.135,2.819C156.77,54.5,156.391,55.431,155.635,56.186z"/>
</g>
</svg>
