<?xml version="1.0" encoding="UTF-8"?>
<svg width="1761px" height="325px" viewBox="0 0 1761 325" version="1.1" xmlns="http://www.w3.org/2000/svg" xmlns:xlink="http://www.w3.org/1999/xlink">
    <!-- Generator: Sketch 43.2 (39069) - http://www.bohemiancoding.com/sketch -->
    <title>function-contramap</title>
    <desc>Created with Sketch.</desc>
    <defs>
        <ellipse id="path-1" cx="248.403653" cy="56.5337423" rx="51.403653" ry="51.5337423"></ellipse>
        <polygon id="path-2" points="124.372306 41.2944785 150.074132 41.2944785 150.074132 28.4110429 175.775959 53.8543899 150.074132 79.9447853 150.074132 67.0613497 124.372306 67.0613497"></polygon>
        <ellipse id="path-3" cx="51.403653" cy="52.1779141" rx="51.403653" ry="51.5337423"></ellipse>
        <polygon id="path-4" points="245.480898 86.9631902 211.4898 104.878593 217.981522 66.9331613 190.482146 40.0600577 228.485349 34.5238939 245.480898 0 262.476447 34.5238939 300.479649 40.0600577 272.980273 66.9331613 279.471995 104.878593"></polygon>
        <polygon id="path-5" points="122.372306 39.2944785 148.074132 39.2944785 148.074132 26.4110429 173.775959 51.8543899 148.074132 77.9447853 148.074132 65.0613497 122.372306 65.0613497"></polygon>
        <polygon id="path-6" points="254.480898 87.9631902 220.4898 105.878593 226.981522 67.9331613 199.482146 41.0600577 237.485349 35.5238939 254.480898 1 271.476447 35.5238939 309.479649 41.0600577 281.980273 67.9331613 288.471995 105.878593"></polygon>
        <polygon id="path-7" points="131.372306 40.2944785 157.074132 40.2944785 157.074132 27.4110429 182.775959 52.8543899 157.074132 78.9447853 157.074132 66.0613497 131.372306 66.0613497"></polygon>
    </defs>
    <g id="Page-1" stroke="none" stroke-width="1" fill="none" fill-rule="evenodd">
        <g id="function-contramap">
            <rect id="Background" fill="#FFFFFF" x="0" y="0" width="1761" height="325"></rect>
            <g id="Group-5" transform="translate(203.000000, 51.000000)">
                <g id="Oval-1">
                    <use fill="#FFFFFF" fill-rule="evenodd" xlink:href="#path-1"></use>
                    <ellipse stroke="#000000" stroke-width="4" cx="248.403653" cy="56.5337423" rx="49.403653" ry="49.5337423"></ellipse>
                </g>
                <g id="Path-1">
                    <use fill="#000000" fill-rule="evenodd" xlink:href="#path-2"></use>
                    <path stroke="#000000" stroke-width="4" d="M126.372306,43.2944785 L150.074132,43.2944785 L152.074132,43.2944785 L152.074132,41.2944785 L152.074132,33.2051698 L172.951044,53.8721251 L152.074132,75.0646607 L152.074132,67.0613497 L152.074132,65.0613497 L150.074132,65.0613497 L126.372306,65.0613497 L126.372306,43.2944785 Z"></path>
                </g>
                <polygon id="Polygon" stroke="#000000" stroke-width="4" points="53 0.0658617424 105.339263 38.0925622 85.3474435 99.621056 20.6525565 99.621056 0.66073703 38.0925622"></polygon>
            </g>
            <g id="Group-5" transform="translate(817.000000, 53.000000)">
                <g id="Oval-1">
                    <use fill="#FFFFFF" fill-rule="evenodd" xlink:href="#path-3"></use>
                    <ellipse stroke="#000000" stroke-width="4" cx="51.403653" cy="52.1779141" rx="49.403653" ry="49.5337423"></ellipse>
                </g>
                <g id="Star-1">
                    <use fill="#FFFFFF" fill-rule="evenodd" xlink:href="#path-4"></use>
                    <path stroke="#000000" stroke-width="4" d="M214.145059,101.218317 L219.952881,67.2704223 L220.129827,66.2361355 L219.379354,65.5027535 L194.772382,41.4561824 L228.773658,36.5030042 L229.814949,36.3513128 L230.279707,35.4072272 L245.480898,4.52830184 L260.682088,35.4072272 L261.146846,36.3513128 L262.188137,36.5030042 L296.189413,41.4561824 L271.582442,65.5027535 L270.831968,66.2361355 L271.008915,67.2704223 L276.816736,101.218317 L246.413424,85.1938979 L245.480898,84.7023992 L244.548372,85.1938979 L214.145059,101.218317 Z"></path>
                </g>
                <g id="Path-1">
                    <use fill="#000000" fill-rule="evenodd" xlink:href="#path-5"></use>
                    <path stroke="#000000" stroke-width="4" d="M124.372306,41.2944785 L148.074132,41.2944785 L150.074132,41.2944785 L150.074132,39.2944785 L150.074132,31.2051698 L170.951044,51.8721251 L150.074132,73.0646607 L150.074132,65.0613497 L150.074132,63.0613497 L148.074132,63.0613497 L124.372306,63.0613497 L124.372306,41.2944785 Z"></path>
                </g>
            </g>
            <g id="Group-6" transform="translate(1258.000000, 52.000000)">
                <g id="Star-1">
                    <use fill="#FFFFFF" fill-rule="evenodd" xlink:href="#path-6"></use>
                    <path stroke="#000000" stroke-width="4" d="M223.145059,102.218317 L228.952881,68.2704223 L229.129827,67.2361355 L228.379354,66.5027535 L203.772382,42.4561824 L237.773658,37.5030042 L238.814949,37.3513128 L239.279707,36.4072272 L254.480898,5.52830184 L269.682088,36.4072272 L270.146846,37.3513128 L271.188137,37.5030042 L305.189413,42.4561824 L280.582442,66.5027535 L279.831968,67.2361355 L280.008915,68.2704223 L285.816736,102.218317 L255.413424,86.1938979 L254.480898,85.7023992 L253.548372,86.1938979 L223.145059,102.218317 Z"></path>
                </g>
                <g id="Path-1">
                    <use fill="#000000" fill-rule="evenodd" xlink:href="#path-7"></use>
                    <path stroke="#000000" stroke-width="4" d="M133.372306,42.2944785 L157.074132,42.2944785 L159.074132,42.2944785 L159.074132,40.2944785 L159.074132,32.2051698 L179.951044,52.8721251 L159.074132,74.0646607 L159.074132,66.0613497 L159.074132,64.0613497 L157.074132,64.0613497 L133.372306,64.0613497 L133.372306,42.2944785 Z"></path>
                </g>
                <polygon id="Polygon" stroke="#000000" stroke-width="4" points="52.6785259 0.853169549 105.357052 39.126359 85.2356454 101.05368 20.1214064 101.05368 -6.39488462e-14 39.126359"></polygon>
            </g>
            <polygon id="Path-1" fill="#F6A623" points="1154 85 1194 85 1194 65 1234 104.497767 1194 145 1194 125 1154 125"></polygon>
            <text id="A-=&gt;-X" font-family="FiraMono-Regular, Fira Mono" font-size="42" font-weight="normal" fill="#000000">
                <tspan x="272.4" y="282">A =&gt; X</tspan>
            </text>
            <text id="B-=&gt;-X" font-family="FiraMono-Regular, Fira Mono" font-size="42" font-weight="normal" fill="#000000">
                <tspan x="1343.4" y="282">B =&gt; X</tspan>
            </text>
            <text id="B-=&gt;-A" font-family="FiraMono-Regular, Fira Mono" font-size="42" font-weight="normal" fill="#000000">
                <tspan x="890.4" y="282">B =&gt; A</tspan>
            </text>
            <text id="contramap" font-family="FiraMono-Bold, Fira Mono" font-size="51.2000008" font-weight="bold" fill="#F6A623">
                <tspan x="517.759998" y="123">contramap</tspan>
            </text>
        </g>
    </g>
</svg>