<?xml version="1.0" encoding="UTF-8" standalone="no"?>
<svg width="1565px" height="360px" viewBox="0 0 1565 360" version="1.1" xmlns="http://www.w3.org/2000/svg" xmlns:xlink="http://www.w3.org/1999/xlink">
    <!-- Generator: Sketch 40 (33762) - http://www.bohemiancoding.com/sketch -->
    <title>future-map</title>
    <desc>Created with Sketch.</desc>
    <defs>
        <ellipse id="path-1" cx="80" cy="80" rx="80" ry="80"></ellipse>
        <mask id="mask-2" maskContentUnits="userSpaceOnUse" maskUnits="objectBoundingBox" x="0" y="0" width="160" height="160" fill="white">
            <use xlink:href="#path-1"></use>
        </mask>
        <ellipse id="path-3" cx="638" cy="143" rx="80" ry="80"></ellipse>
        <mask id="mask-4" maskContentUnits="userSpaceOnUse" maskUnits="objectBoundingBox" x="0" y="0" width="160" height="160" fill="white">
            <use xlink:href="#path-3"></use>
        </mask>
        <polygon id="path-5" points="942.595086 197 889.694414 224.811529 899.797543 165.905765 857 124.188471 916.14475 115.594235 942.595086 62 969.045423 115.594235 1028.19017 124.188471 985.39263 165.905765 995.495759 224.811529"></polygon>
        <mask id="mask-6" maskContentUnits="userSpaceOnUse" maskUnits="objectBoundingBox" x="0" y="0" width="171.190173" height="162.811529" fill="white">
            <use xlink:href="#path-5"></use>
        </mask>
        <polygon id="path-7" points="85.5950865 135 32.6944138 162.811529 42.7975432 103.905765 5.32907052e-14 62.1884705 59.1447501 53.5942353 85.5950865 0 112.045423 53.5942353 171.190173 62.1884705 128.39263 103.905765 138.495759 162.811529"></polygon>
        <mask id="mask-8" maskContentUnits="userSpaceOnUse" maskUnits="objectBoundingBox" x="0" y="0" width="171.190173" height="162.811529" fill="white">
            <use xlink:href="#path-7"></use>
        </mask>
        <polygon id="path-9" points="756 123 796 123 796 103 836 142.497767 796 183 796 163 756 163"></polygon>
        <mask id="mask-10" maskContentUnits="userSpaceOnUse" maskUnits="objectBoundingBox" x="0" y="0" width="80" height="80" fill="white">
            <use xlink:href="#path-9"></use>
        </mask>
    </defs>
    <g id="Page-1" stroke="none" stroke-width="1" fill="none" fill-rule="evenodd">
        <g id="future-map">
            <rect id="Background" fill="#FFFFFF" x="0" y="0" width="1565" height="360"></rect>
            <g id="Group-2" transform="translate(186.000000, 60.000000)" stroke="#000000" stroke-width="8" fill="#FFFFFF">
                <use id="Oval-1" mask="url(#mask-2)" xlink:href="#path-1"></use>
            </g>
            <use id="Oval-1" stroke="#000000" mask="url(#mask-4)" stroke-width="8" fill="#FFFFFF" xlink:href="#path-3"></use>
            <use id="Star-1" stroke="#000000" mask="url(#mask-6)" stroke-width="8" fill="#FFFFFF" xlink:href="#path-5"></use>
            <g id="Group" transform="translate(1222.000000, 60.000000)" stroke="#000000" stroke-width="8" fill="#FFFFFF">
                <use id="Star-1" mask="url(#mask-8)" xlink:href="#path-7"></use>
            </g>
            <use id="Path-1" stroke="#000000" mask="url(#mask-10)" stroke-width="8" fill="#000000" xlink:href="#path-9"></use>
            <polygon id="Path-1" fill="#F6A623" points="1060 123 1100 123 1100 103 1140 142.497767 1100 183 1100 163 1060 163"></polygon>
            <text id="Future[A]" font-family="FiraMono-Regular, Fira Mono" font-size="42" font-weight="normal" fill="#000000">
                <tspan x="152.6" y="317">Future[A]</tspan>
            </text>
            <text id="Future[B]" font-family="FiraMono-Regular, Fira Mono" font-size="42" font-weight="normal" fill="#000000">
                <tspan x="1196.6" y="317">Future[B]</tspan>
            </text>
            <text id="A-=&gt;-B" font-family="FiraMono-Regular, Fira Mono" font-size="42" font-weight="normal" fill="#000000">
                <tspan x="730.4" y="317">A =&gt; B</tspan>
            </text>
            <path d="M363.315361,210.467721 C385.006169,199.992471 396,183.961214 396,161.8 C396,135.750232 380.809583,118.170359 350.910889,108.12819 C354.907288,101.078104 357.132924,93.2472515 357.132924,85 C357.132924,54.072054 325.8334,29 287.223482,29 C268.174233,29 250.904488,35.1030628 238.295299,45.00136 C233.887872,43.9548756 229.281771,43.4 224.542169,43.4 C192.682658,43.4 166.855422,68.472054 166.855422,99.4 C166.855422,103.9092 167.404425,108.293923 168.441083,112.494615 C143.680009,122.952373 130,139.184167 130,161.8 C130,197.248626 163.609345,217.012808 220.819802,223.441594 C233.787678,241.035696 259.294061,253 288.638554,253 C324.740936,253 355.033857,234.890521 363.31536,210.467725 Z" id="Combined-Shape" stroke="#000000" stroke-width="4"></path>
            <path d="M1409.31536,219.467721 C1431.00617,208.992471 1442,192.961214 1442,170.8 C1442,144.750232 1426.80958,127.170359 1396.91089,117.12819 C1400.90729,110.078104 1403.13292,102.247251 1403.13292,94 C1403.13292,63.072054 1371.8334,38 1333.22348,38 C1314.17423,38 1296.90449,44.1030628 1284.2953,54.00136 C1279.88787,52.9548756 1275.28177,52.4 1270.54217,52.4 C1238.68266,52.4 1212.85542,77.472054 1212.85542,108.4 C1212.85542,112.9092 1213.40442,117.293923 1214.44108,121.494615 C1189.68001,131.952373 1176,148.184167 1176,170.8 C1176,206.248626 1209.60934,226.012808 1266.8198,232.441594 C1279.78768,250.035696 1305.29406,262 1334.63855,262 C1370.74094,262 1401.03386,243.890521 1409.31536,219.467725 Z" id="Combined-Shape" stroke="#000000" stroke-width="4"></path>
            <text id="map" font-family="FiraMono-Bold, Fira Mono" font-size="64" font-weight="bold" fill="#F6A623">
                <tspan x="422.4" y="158">map</tspan>
            </text>
        </g>
    </g>
</svg>