<?xml version="1.0" encoding="UTF-8" standalone="no"?>
<svg width="1762px" height="360px" viewBox="0 0 1762 360" version="1.1" xmlns="http://www.w3.org/2000/svg" xmlns:xlink="http://www.w3.org/1999/xlink">
    <!-- Generator: Sketch 40.3 (33839) - http://www.bohemiancoding.com/sketch -->
    <title>generic-contramap</title>
    <desc>Created with Sketch.</desc>
    <defs>
        <ellipse id="path-1" cx="64" cy="63.902439" rx="64" ry="63.902439"></ellipse>
        <mask id="mask-2" maskContentUnits="userSpaceOnUse" maskUnits="objectBoundingBox" x="0" y="0" width="128" height="127.804878" fill="white">
            <use xlink:href="#path-1"></use>
        </mask>
        <polygon id="path-3" points="314.876069 108.634146 272.555531 130.849453 280.638035 83.7966779 246.4 50.4737173 293.7158 43.6088099 314.876069 0.798780488 336.036338 43.6088099 383.352138 50.4737173 349.114104 83.7966779 357.196607 130.849453"></polygon>
        <mask id="mask-4" maskContentUnits="userSpaceOnUse" maskUnits="objectBoundingBox" x="0" y="0" width="136.952138" height="130.050673" fill="white">
            <use xlink:href="#path-3"></use>
        </mask>
        <polygon id="path-5" points="161.6 47.9268293 193.6 47.9268293 193.6 31.9512195 225.6 63.5012652 193.6 95.8536585 193.6 79.8780488 161.6 79.8780488"></polygon>
        <mask id="mask-6" maskContentUnits="userSpaceOnUse" maskUnits="objectBoundingBox" x="0" y="0" width="64" height="63.902439" fill="white">
            <use xlink:href="#path-5"></use>
        </mask>
        <polygon id="path-7" points="68.4760692 108 26.155531 130.249224 34.2380346 83.1246118 -9.41469125e-14 49.7507764 47.3158001 42.8753882 68.4760692 0 89.6363383 42.8753882 136.952138 49.7507764 102.714104 83.1246118 110.796607 130.249224"></polygon>
        <mask id="mask-8" maskContentUnits="userSpaceOnUse" maskUnits="objectBoundingBox" x="0" y="0" width="136.952138" height="130.249224" fill="white">
            <use xlink:href="#path-7"></use>
        </mask>
        <rect id="path-9" x="0" y="0" width="160" height="160" rx="6.4"></rect>
        <mask id="mask-10" maskContentUnits="userSpaceOnUse" maskUnits="objectBoundingBox" x="0" y="0" width="160" height="160" fill="white">
            <use xlink:href="#path-9"></use>
        </mask>
        <ellipse id="path-11" cx="64" cy="64" rx="64" ry="64"></ellipse>
        <mask id="mask-12" maskContentUnits="userSpaceOnUse" maskUnits="objectBoundingBox" x="0" y="0" width="128" height="128" fill="white">
            <use xlink:href="#path-11"></use>
        </mask>
        <rect id="path-13" x="0" y="0" width="160" height="160" rx="6.4"></rect>
        <mask id="mask-14" maskContentUnits="userSpaceOnUse" maskUnits="objectBoundingBox" x="0" y="0" width="160" height="160" fill="white">
            <use xlink:href="#path-13"></use>
        </mask>
    </defs>
    <g id="Page-1" stroke="none" stroke-width="1" fill="none" fill-rule="evenodd">
        <g id="generic-contramap">
            <rect id="Background" fill="#FFFFFF" x="0" y="0" width="1762" height="360"></rect>
            <g id="Group-7" transform="translate(787.000000, 75.000000)" stroke="#000000" stroke-width="6.4">
                <use id="Oval-1" mask="url(#mask-2)" fill="#FFFFFF" xlink:href="#path-1"></use>
                <use id="Star-1" mask="url(#mask-4)" fill="#FFFFFF" xlink:href="#path-3"></use>
                <use id="Path-1" mask="url(#mask-6)" fill="#000000" xlink:href="#path-5"></use>
            </g>
            <polygon id="Path-1" fill="#F6A623" points="1213 123 1245 123 1245 107 1277 138.598214 1245 171 1245 155 1213 155"></polygon>
            <text id="F[B]" font-family="FiraMono-Regular, Fira Mono" font-size="42" font-weight="normal" fill="#000000">
                <tspan x="312.6" y="314">F[B]</tspan>
            </text>
            <text id="F[A]" font-family="FiraMono-Regular, Fira Mono" font-size="42" font-weight="normal" fill="#000000">
                <tspan x="1356.6" y="314">F[A]</tspan>
            </text>
            <text id="A-=&gt;-B" font-family="FiraMono-Regular, Fira Mono" font-size="42" font-weight="normal" fill="#000000">
                <tspan x="900.4" y="314">A =&gt; B</tspan>
            </text>
            <g id="Group-9" transform="translate(280.000000, 57.000000)" stroke="#000000" stroke-width="6.4">
                <g id="Group" transform="translate(11.200000, 15.200000)" fill="#FFFFFF">
                    <use id="Star-1" mask="url(#mask-8)" xlink:href="#path-7"></use>
                </g>
                <use id="Rectangle-1" mask="url(#mask-10)" xlink:href="#path-9"></use>
            </g>
            <g id="Group-8" transform="translate(1320.000000, 57.000000)" stroke="#000000" stroke-width="6.4">
                <g id="Group-2" transform="translate(16.000000, 19.200000)" fill="#FFFFFF">
                    <use id="Oval-1" mask="url(#mask-12)" xlink:href="#path-11"></use>
                </g>
                <use id="Rectangle-1" mask="url(#mask-14)" xlink:href="#path-13"></use>
            </g>
            <text id="contramap" font-family="FiraMono-Bold, Fira Mono" font-size="51.2" font-weight="bold" fill="#F6A623">
                <tspan x="474.26" y="151">contramap</tspan>
            </text>
        </g>
    </g>
</svg>