<?xml version="1.0" encoding="UTF-8" standalone="no"?>
<svg width="1563px" height="360px" viewBox="0 0 1563 360" version="1.1" xmlns="http://www.w3.org/2000/svg" xmlns:xlink="http://www.w3.org/1999/xlink">
    <!-- Generator: Sketch 40 (33762) - http://www.bohemiancoding.com/sketch -->
    <title>option-map</title>
    <desc>Created with Sketch.</desc>
    <defs>
        <path d="M133.820422,42.0071389 C149.321446,56.7797646 159,77.7454802 159,101 C159,145.735065 123.18278,182 79,182 C55.675188,182 34.6818214,171.893119 20.058808,155.768753 L133.820422,42.0071389 Z" id="path-1"></path>
        <mask id="mask-2" maskContentUnits="userSpaceOnUse" maskUnits="objectBoundingBox" x="0" y="0" width="138.941192" height="139.992861" fill="white">
            <use xlink:href="#path-1"></use>
        </mask>
        <path d="M137.058837,44.9260115 C122.544644,30.1585052 102.341864,21 80,21 C35.81722,21 -1.42108547e-14,56.81722 -1.42108547e-14,101 C-1.42108547e-14,123.341864 9.15850523,143.544644 23.9260115,158.058837 L137.058837,44.9260115 Z" id="path-3"></path>
        <mask id="mask-4" maskContentUnits="userSpaceOnUse" maskUnits="objectBoundingBox" x="0" y="0" width="137.058837" height="137.058837" fill="white">
            <use xlink:href="#path-3"></use>
        </mask>
        <rect id="path-5" x="1020" y="0" width="200" height="200" rx="8"></rect>
        <mask id="mask-6" maskContentUnits="userSpaceOnUse" maskUnits="objectBoundingBox" x="0" y="0" width="200" height="200" fill="white">
            <use xlink:href="#path-5"></use>
        </mask>
        <path d="M1093.55806,143.194146 L1087,181.430593 L1139.90067,153.619064 L1192.80135,181.430593 L1182.69822,122.524828 L1225.49576,80.807534 L1166.35101,72.2132988 L1165.75221,71 L1093.55806,143.194146 Z" id="path-7"></path>
        <mask id="mask-8" maskContentUnits="userSpaceOnUse" maskUnits="objectBoundingBox" x="0" y="0" width="138.495759" height="110.430593" fill="white">
            <use xlink:href="#path-7"></use>
        </mask>
        <path d="M1091.9778,151.007053 L1096.79754,122.905765 L1054,81.1884705 L1113.14475,72.5942353 L1139.59509,19 L1166.04542,72.5942353 L1169.83933,73.1455217 L1091.9778,151.007053 Z" id="path-9"></path>
        <mask id="mask-10" maskContentUnits="userSpaceOnUse" maskUnits="objectBoundingBox" x="0" y="0" width="115.839326" height="132.007053" fill="white">
            <use xlink:href="#path-9"></use>
        </mask>
        <rect id="path-11" x="0" y="0" width="200" height="200" rx="8"></rect>
        <mask id="mask-12" maskContentUnits="userSpaceOnUse" maskUnits="objectBoundingBox" x="0" y="0" width="200" height="200" fill="white">
            <use xlink:href="#path-11"></use>
        </mask>
        <ellipse id="path-13" cx="633" cy="140" rx="80" ry="80"></ellipse>
        <mask id="mask-14" maskContentUnits="userSpaceOnUse" maskUnits="objectBoundingBox" x="0" y="0" width="160" height="160" fill="white">
            <use xlink:href="#path-13"></use>
        </mask>
        <polygon id="path-15" points="943.595086 194 890.694414 221.811529 900.797543 162.905765 858 121.188471 917.14475 112.594235 943.595086 59 970.045423 112.594235 1029.19017 121.188471 986.39263 162.905765 996.495759 221.811529"></polygon>
        <mask id="mask-16" maskContentUnits="userSpaceOnUse" maskUnits="objectBoundingBox" x="0" y="0" width="171.190173" height="162.811529" fill="white">
            <use xlink:href="#path-15"></use>
        </mask>
        <polygon id="path-17" points="755 120 795 120 795 100 835 139.497767 795 180 795 160 755 160"></polygon>
        <mask id="mask-18" maskContentUnits="userSpaceOnUse" maskUnits="objectBoundingBox" x="0" y="0" width="80" height="80" fill="white">
            <use xlink:href="#path-17"></use>
        </mask>
    </defs>
    <g id="Page-1" stroke="none" stroke-width="1" fill="none" fill-rule="evenodd">
        <g id="option-map">
            <rect id="Background" fill="#FFFFFF" x="0" y="0" width="1563" height="360"></rect>
            <g id="Group-4" transform="translate(183.000000, 38.000000)" stroke-width="8">
                <use id="Combined-Shape" stroke="#9B9B9B" mask="url(#mask-2)" stroke-dasharray="10,5" fill="#FFFFFF" xlink:href="#path-1"></use>
                <use id="Combined-Shape" stroke="#000000" mask="url(#mask-4)" fill="#FFFFFF" xlink:href="#path-3"></use>
                <use id="Rectangle-1" stroke="#000000" mask="url(#mask-6)" xlink:href="#path-5"></use>
            </g>
            <g id="Group-3" transform="translate(163.000000, 38.000000)" stroke-width="8">
                <use id="Combined-Shape" stroke="#9B9B9B" mask="url(#mask-8)" stroke-dasharray="10,5" fill="#FFFFFF" xlink:href="#path-7"></use>
                <use id="Combined-Shape" stroke="#000000" mask="url(#mask-10)" fill="#FFFFFF" xlink:href="#path-9"></use>
                <use id="Rectangle-1" stroke="#000000" mask="url(#mask-12)" xlink:href="#path-11"></use>
            </g>
            <use id="Oval-1" stroke="#000000" mask="url(#mask-14)" stroke-width="8" fill="#FFFFFF" xlink:href="#path-13"></use>
            <use id="Star-1" stroke="#000000" mask="url(#mask-16)" stroke-width="8" fill="#FFFFFF" xlink:href="#path-15"></use>
            <use id="Path-1" stroke="#000000" mask="url(#mask-18)" stroke-width="8" fill="#000000" xlink:href="#path-17"></use>
            <polygon id="Path-1" fill="#F6A623" points="1085 120 1125 120 1125 100 1165 139.497767 1125 180 1125 160 1085 160"></polygon>
            <text id="Option[A]" font-family="FiraMono-Regular, Fira Mono" font-size="42" font-weight="normal" fill="#000000">
                <tspan x="159.6" y="314">Option[A]</tspan>
            </text>
            <text id="map" font-family="FiraMono-Bold, Fira Mono" font-size="64" font-weight="bold" fill="#F6A623">
                <tspan x="402.4" y="156">map</tspan>
            </text>
            <text id="Option[B]" font-family="FiraMono-Regular, Fira Mono" font-size="42" font-weight="normal" fill="#000000">
                <tspan x="1183.6" y="314">Option[B]</tspan>
            </text>
            <text id="A-=&gt;-B" font-family="FiraMono-Regular, Fira Mono" font-size="42" font-weight="normal" fill="#000000">
                <tspan x="729.4" y="314">A =&gt; B</tspan>
            </text>
        </g>
    </g>
</svg>