<?xml version="1.0" encoding="UTF-8"?>
<svg width="1761px" height="660px" viewBox="0 0 1761 660" version="1.1" xmlns="http://www.w3.org/2000/svg" xmlns:xlink="http://www.w3.org/1999/xlink">
    <!-- Generator: Sketch 43.2 (39069) - http://www.bohemiancoding.com/sketch -->
    <title>simple-counter3</title>
    <desc>Created with Sketch.</desc>
    <defs></defs>
    <g id="Page-1" stroke="none" stroke-width="1" fill="none" fill-rule="evenodd">
        <g id="simple-counter3">
            <rect id="Background" fill="#FFFFFF" x="0" y="0" width="1761" height="660"></rect>
            <rect id="Rectangle-1" stroke="#000000" stroke-width="4" x="981" y="422" width="196" height="196" rx="8"></rect>
            <text id="5" font-family="FiraMono-Regular, Fira Mono" font-size="80" font-weight="normal" fill="#000000">
                <tspan x="656" y="548">5</tspan>
            </text>
            <text id="5" font-family="FiraMono-Regular, Fira Mono" font-size="80" font-weight="normal" fill="#000000">
                <tspan x="1055" y="547">5</tspan>
            </text>
            <rect id="Rectangle-1" stroke="#000000" stroke-width="4" x="582" y="422" width="196" height="196" rx="8"></rect>
            <polygon id="Path-1-Copy-2" fill="#F6A623" transform="translate(885.401085, 374.401085) rotate(-315.000000) translate(-885.401085, -374.401085) " points="777.755655 354.691946 953.046515 354.401085 953.046515 334.401085 993.046515 373.898852 953.046515 414.401085 953.046515 394.401085 777.755655 394.691946"></polygon>
            <polygon id="Path-1-Copy-2" fill="#F6A623" transform="translate(878.401085, 374.401085) rotate(-225.000000) translate(-878.401085, -374.401085) " points="770.755655 354.691946 946.046515 354.401085 946.046515 334.401085 986.046515 373.898852 946.046515 414.401085 946.046515 394.401085 770.755655 394.691946"></polygon>
            <rect id="Rectangle-1" stroke="#000000" stroke-width="4" x="981" y="122" width="196" height="196" rx="8"></rect>
            <text id="3" font-family="FiraMono-Regular, Fira Mono" font-size="80" font-weight="normal" fill="#000000">
                <tspan x="656" y="247">3</tspan>
            </text>
            <text id="2" font-family="FiraMono-Regular, Fira Mono" font-size="80" font-weight="normal" fill="#000000">
                <tspan x="1055" y="247">2</tspan>
            </text>
            <rect id="Rectangle-1" stroke="#000000" stroke-width="4" x="582" y="122" width="196" height="196" rx="8"></rect>
            <text id="Machine-B" font-family="Helvetica" font-size="42" font-weight="normal" fill="#000000">
                <tspan x="981.283203" y="70">Machine B</tspan>
            </text>
            <text id="Machine-A" font-family="Helvetica" font-size="42" font-weight="normal" fill="#000000">
                <tspan x="583.431641" y="70">Machine A</tspan>
            </text>
            <text id="Add-counters" font-family="Helvetica" font-size="36" font-weight="normal" fill="#000000">
                <tspan x="775.433594" y="384">Add counters</tspan>
            </text>
            <polygon id="Path-1-Copy-2" fill="#F6A623" transform="translate(1327.645430, 220.000000) scale(-1, 1) translate(-1327.645430, -220.000000) " points="1220 200.290861 1395.29086 200 1395.29086 180 1435.29086 219.497767 1395.29086 260 1395.29086 240 1220 240.290861"></polygon>
            <text id="Incoming-requests" font-family="Helvetica" font-size="36" font-weight="normal" fill="#000000">
                <tspan x="1274.42383" y="181">Incoming requests</tspan>
            </text>
            <polygon id="Path-1-Copy-2" fill="#F6A623" points="326 200.290861 501.290861 200 501.290861 180 541.290861 219.497767 501.290861 260 501.290861 240 326 240.290861"></polygon>
            <text id="Incoming-requests" font-family="Helvetica" font-size="36" font-weight="normal" fill="#000000">
                <tspan x="190.423828" y="181">Incoming requests</tspan>
            </text>
        </g>
    </g>
</svg>